<svg xmlns="http://www.w3.org/2000/svg" viewBox="0 0 99.44 77.3"><defs><style>.cls-1{fill:#a5d0a8}.cls-2{fill:#d33e43}.cls-3{fill:#a9bec7}.cls-6{fill:#064f2e}</style></defs><g id="Layer_2" data-name="Layer 2"><g id="OBJECTS"><path class="cls-1" transform="rotate(-10.45 61.393 49.721)" d="M57.86 38.16h7.11v23.09h-7.11z"/><path class="cls-1" d="M59.22 57.09h30.27v7.11H59.22z"/><path class="cls-1" transform="rotate(-11.65 6.435 34.975)" d="M2.55 28.62h7.74v12.7H2.55z"/><path class="cls-2" transform="rotate(-11.65 11.03 34.107)" d="M5.52 25.82h11v16.56h-11z"/><path class="cls-3" d="M82.56 30.62A4.51 4.51 0 0179.05 36L17.66 48.61a4.51 4.51 0 01-5.33-3.51L7.87 23.48a4.51 4.51 0 013.51-5.33L72.77 5.49A4.52 4.52 0 0178.1 9z"/><path d="M0 16.86l4.52 6.23A8 8 0 0012 26l4.6-1a4.77 4.77 0 015.62 3.69l1.35 6.55A4.75 4.75 0 0029.18 39l53.47-11a4.75 4.75 0 003.69-5.61L81.74 0z"/><g opacity=".4"><path class="cls-3" d="M53.07 5.91l2.35 11.4a1.3 1.3 0 002.58-.53L55.62 5.39zM60.18 4.45l2.35 11.39a1.3 1.3 0 102.55-.52l-2.35-11.4zM67.29 3l2.35 11.4a1.31 1.31 0 001.54 1 1.3 1.3 0 001-1.54L69.84 2.45z"/></g><circle cx="63.31" cy="60.64" r="8.75" transform="rotate(-83 63.313 60.639)" fill="#070707"/><path class="cls-6" d="M67 60.64A3.69 3.69 0 1163.31 57 3.69 3.69 0 0167 60.64z"/><path class="cls-2" d="M99.44 77.3l-10.67-3.04V47.02l10.67-3.04V77.3z"/><path class="cls-6" d="M32.17 32.91a2.37 2.37 0 11-2.37-2.37 2.37 2.37 0 012.37 2.37z"/></g></g></svg>